Simulation
nRows=24
nColumns=15
endheader
time  TH_x TH_y TH_z SC_y  SC_z  SC_x  AC_y  AC_z  AC_x  GH_y  GH_z  GH_yy  EL_x  PS_y
0.0  0.000000  0.000000  0.000000  -32.243167486810194  0.9425438857465868  36.747644063092075  51.54796143996223  -16.09911557947204  -26.39532133781532  40.193370070870614  -3.0071286884474704  -9.526026519346235  22.36781363981911  0.000000
0.031  0.000000  0.000000  0.000000  -31.810683691545965  0.6281041784644017  35.99099514481782  50.98711894521172  -16.80897573418838  -26.7045034322518  40.03911648372116  -3.482580933762879  -9.71176054963554  22.36748535172382  0.000000
0.062  0.000000  0.000000  0.000000  -31.325580466931065  0.28068452337069855  35.1042481510932  50.37399403871165  -17.526453972594734  -26.910895867437237  39.83401641194062  -3.709328959919422  -9.931361620894819  22.308131598559715  0.000000
0.093  0.000000  0.000000  0.000000  -31.001581808897985  -0.12207518793025879  34.22424318002497  49.89853336722892  -18.20115735873284  -26.983778636433104  39.58663701822614  -3.6893959827077767  -10.137105447609143  22.25298742828537  0.000000
0.124  0.000000  0.000000  0.000000  -30.743139438936275  -0.5021571570021166  33.41687229078332  49.55108657110632  -18.79183294795228  -26.95961910243462  39.304782785528786  -3.4915724404691995  -10.3140285300152  22.263003566159362  0.000000
0.155  0.000000  0.000000  0.000000  -30.514114802038403  -0.8334224631055495  32.69448654734775  49.29176805746587  -19.27709979497534  -26.869422009599408  38.97789487650377  -3.141193563292652  -10.473990210957718  22.291823220284268  0.000000
0.186  0.000000  0.000000  0.000000  -30.310991801654048  -1.1183518135179618  32.07789721114106  49.091841650807915  -19.656879165274475  -26.753942017487205  38.59167658512789  -2.666330146216604  -10.634666400814659  22.31605894217713  0.000000
0.217  0.000000  0.000000  0.000000  -30.115278666793444  -1.3377444169916517  31.552694114403586  48.937973277628636  -19.943934499264934  -26.61554353925513  38.146260570800486  -2.0774059305594372  -10.794036636568046  22.31834022990041  0.000000
0.248  0.000000  0.000000  0.000000  -29.9231412138307  -1.4896006792266738  31.079191931387854  48.82843637146775  -20.12998964726823  -26.4476422802671  37.64052399162594  -1.3756065921405434  -10.947757013288882  22.302119654000695  0.000000
0.279  0.000000  0.000000  0.000000  -29.745094566274535  -1.5864823466912439  30.680782212733043  48.74901290083829  -20.2461207972387  -26.28343233353199  37.078386984204435  -0.5628222373283225  -11.08014665142558  22.26045812976499  0.000000
0.31  0.000000  0.000000  0.000000  -29.607384924573882  -1.6632365490159076  30.3650763363102  48.705162708940236  -20.297999755908716  -26.152045853105335  36.468792905803916  0.36475508859190714  -11.16615818167889  22.19333466195535  0.000000
0.34099999999999997  0.000000  0.000000  0.000000  -29.52500045655749  -1.7412326111219307  30.10886396042387  48.713402591328745  -20.270760692526554  -26.029654881381077  35.81363056087442  1.3981375424446718  -11.202850550149694  22.1027880792424  0.000000
0.372  0.000000  0.000000  0.000000  -29.479289635910323  -1.7970467654998663  29.906806178616925  48.78556085161863  -20.18282103754946  -25.876504625756805  35.11291335052723  2.52112097403955  -11.218394787829066  22.01027930032732  0.000000
0.403  0.000000  0.000000  0.000000  -29.456494116393397  -1.806852715736832  29.7826486960495  48.917031955602354  -20.06443076372409  -25.69389140607589  34.38786206616739  3.7275594610077243  -11.236208591111254  21.932134188913466  0.000000
0.434  0.000000  0.000000  0.000000  -29.468576585831027  -1.7784875672741778  29.760849986827782  49.09799231090395  -19.937847747529492  -25.511236076498783  33.662427477404925  5.028040868230562  -11.273994255246402  21.859821055965785  0.000000
0.46499999999999997  0.000000  0.000000  0.000000  -29.51975054118668  -1.7248889977430297  29.851713799191  49.318014874624815  -19.818864009033657  -25.346683897251133  32.95480776443843  6.428058595964775  -11.34849534678313  21.778448558970812  0.000000
0.496  0.000000  0.000000  0.000000  -29.602638932354537  -1.6510585730263576  30.06115365331804  49.56863939931783  -19.72135782359754  -25.211037530919754  32.277562395666465  7.921287274145336  -11.474209183386213  21.68874633582541  0.000000
0.527  0.000000  0.000000  0.000000  -29.710410931025006  -1.556633457421926  30.389882299192156  49.841607059788714  -19.649644619367475  -25.110339532630316  31.64045515141873  9.495370061958742  -11.659613336999808  21.59426802192008  0.000000
0.558  0.000000  0.000000  0.000000  -29.840570913408367  -1.4391346907071407  30.83890796906591  50.12934240178592  -19.60689860341651  -25.049314931240716  31.04688227718416  11.138402679853499  -11.908707397317  21.494692837817425  0.000000
0.589  0.000000  0.000000  0.000000  -29.99003933349556  -1.3010635258186651  31.407702595566164  50.42861323790987  -19.592952779910767  -25.033972273470106  30.49767270474112  12.834745235991333  -12.219115844122108  21.387856965201056  0.000000
0.62  0.000000  0.000000  0.000000  -30.15185289034014  -1.1478625111322884  32.08961203426482  50.73193600250821  -19.603748335979258  -25.065695521382636  29.991972050307478  14.561394564904592  -12.58218921921297  21.275313975425814  0.000000
0.651  0.000000  0.000000  0.000000  -30.3212554224857  -0.9832061676880561  32.85691965569417  51.032871472555414  -19.618398063232263  -25.129906968149555  29.53081255653156  16.295648784026877  -12.984547728919557  21.16197842030004  0.000000
0.6819999999999999  0.000000  0.000000  0.000000  -30.490634143614027  -0.8098258783789496  33.67875015975722  51.33512383373233  -19.61636384787138  -25.213776978995206  29.108164588643966  18.028595815476255  -13.416644621542584  21.050471817817147  0.000000
0.713  0.000000  0.000000  0.000000  -30.658792574910596  -0.6288678359482506  34.542307308023865  51.63986218685497  -19.58979885494544  -25.313204963083678  28.71397206064756  19.758579903194832  -13.868165802227985  20.938767031292286  0.000000
